<?xml version="1.0" encoding="UTF-8" standalone="no"?>
<!-- Created with Inkscape (http://www.inkscape.org/) -->

<svg
   xmlns:dc="http://purl.org/dc/elements/1.1/"
   xmlns:cc="http://creativecommons.org/ns#"
   xmlns:rdf="http://www.w3.org/1999/02/22-rdf-syntax-ns#"
   xmlns:svg="http://www.w3.org/2000/svg"
   xmlns="http://www.w3.org/2000/svg"
   xmlns:sodipodi="http://sodipodi.sourceforge.net/DTD/sodipodi-0.dtd"
   xmlns:inkscape="http://www.inkscape.org/namespaces/inkscape"
   width="500mm"
   height="500mm"
   viewBox="0 0 1771.6535 1771.6535"
   id="svg4383"
   version="1.1"
   inkscape:version="0.91 r"
   sodipodi:docname="gauge.svg">
  <defs
     id="defs4385" />
  <sodipodi:namedview
     id="base"
     pagecolor="#ffffff"
     bordercolor="#666666"
     borderopacity="1.0"
     inkscape:pageopacity="0.0"
     inkscape:pageshadow="2"
     inkscape:zoom="0.24748737"
     inkscape:cx="202.50841"
     inkscape:cy="910.19584"
     inkscape:document-units="px"
     inkscape:current-layer="layer1"
     showgrid="false"
     inkscape:window-width="1366"
     inkscape:window-height="744"
     inkscape:window-x="0"
     inkscape:window-y="24"
     inkscape:window-maximized="1" />
  <metadata
     id="metadata4388">
    <rdf:RDF>
      <cc:Work
         rdf:about="">
        <dc:format>image/svg+xml</dc:format>
        <dc:type
           rdf:resource="http://purl.org/dc/dcmitype/StillImage" />
        <dc:title></dc:title>
      </cc:Work>
    </rdf:RDF>
  </metadata>
  <g
     inkscape:label="Layer 1"
     inkscape:groupmode="layer"
     id="layer1"
     transform="translate(0,719.29134)">
    <g
       id="g4410"
       transform="translate(-7.9999992,61.999999)">
      <path
         style="fill:#dedede"
         d="m 217.09059,528.90488 c -7.14838,-1.15151 -9.5968,-6.26763 -9.5968,-20.05399 0,-10.13505 0.62718,-13.46252 3.03994,-16.12849 5.73367,-6.33561 16.88314,-4.9906 20.90364,2.52173 1.25612,2.34729 2.28388,8.47034 2.28388,13.60676 0,5.13644 -1.02776,11.25948 -2.28388,13.60676 -2.45087,4.57929 -8.64965,7.36497 -14.34678,6.44723 z m 6.58187,-12.2677 c 1.45056,-5.41269 1.19947,-14.82085 -0.4658,-17.45064 -0.79661,-1.25834 -2.62956,-1.83472 -4.07295,-1.28086 -1.99328,0.76495 -2.62414,3.318 -2.62414,10.62057 0,5.28743 0.49167,10.10532 1.09281,10.70634 2.22146,2.22159 5.11016,0.98647 6.07008,-2.59541 z m 1329.36474,11.14545 c -7.5719,-3.2943 -9.5147,-12.37487 -2.6476,-12.37487 1.4535,0 3.9643,1.19593 5.5794,2.65762 4.1874,3.78951 8.3183,1.70276 7.6764,-3.87771 -0.4977,-4.32732 -0.8569,-4.49544 -8.5462,-4 l -8.0267,0.51719 0.9657,-9.35658 c 0.5311,-5.14611 1.6382,-10.02914 2.4603,-10.8512 0.822,-0.82205 5.8436,-1.27021 11.159,-0.99591 8.4054,0.43375 9.6644,0.92585 9.6644,3.77716 0,2.66394 -1.3826,3.44141 -7.3765,4.14786 -7.3518,0.86655 -7.359,0.87372 -2.1622,2.15439 2.8678,0.70674 6.0931,2.34402 7.1674,3.63843 2.8865,3.4781 4.8301,2.86506 4.8301,-1.52352 0,-2.13234 1.5289,-5.82059 3.3975,-8.19608 4.7569,-6.04748 14.6333,-6.10142 19.3495,-0.10578 6.7779,8.61679 5.9727,25.96311 -1.52,32.74394 -5.0176,4.5409 -12.8295,3.76749 -17.5661,-1.73913 -3.671,-4.26778 -4.1565,-4.41906 -5.6453,-1.75883 -0.8958,1.6008 -4.1115,3.9479 -7.146,5.21579 -6.4807,2.70779 -5.2034,2.7158 -11.6131,-0.0727 z m 37.2622,-10.97197 c 2.1125,-3.9472 1.0704,-15.61462 -1.6363,-18.32139 -3.0942,-3.09417 -5.3686,1.28209 -5.2995,10.19716 0.092,11.88903 3.0602,15.36579 6.9358,8.12423 z M 53.817277,466.09996 c -3.468146,-2.01998 -3.725,-12.99614 -1.192651,-50.96381 C 66.594074,205.6941 154.287,12.102865 300.75254,-132.63206 c 71.43067,-70.58654 150.84726,-126.13601 237.97805,-166.45809 95.67526,-44.27629 191.74022,-69.32539 296.94651,-77.42932 35.73828,-2.75289 123.3713,-0.92116 157.82103,3.2988 83.36527,10.21194 161.02097,30.76184 234.88797,62.15803 25.4989,10.83794 27.9708,12.50774 26.6002,17.96861 l -1.0754,4.28464 3.0842,-3.80881 3.0842,-3.8088 23.3944,11.87052 c 131.6864,66.81873 252.0328,177.45089 329.912,303.281665 31.4412,50.79994 51.0639,90.152375 72.3383,145.070645 25.122,64.85061 42.9168,137.55005 50.957,208.18049 4.1377,36.34824 6.8849,91.83771 4.616,93.23993 -1.9098,1.18033 -334.8272,1.45052 -336.0051,0.27268 -0.458,-0.45802 -1.431,-11.35866 -2.1622,-24.22365 -4.063,-71.48745 -19.7129,-132.09292 -50.4853,-195.50862 -40.6063,-83.68158 -99.1144,-150.625434 -176.6392,-202.107287 -14.5835,-9.684459 -41.9092,-25.458655 -53.5407,-30.907197 -6.4316,-3.0127318 -6.7264,-4.0456183 -3.6728,-12.86797995 0.6241,-1.80313825 0,-1.33737165 -1.3789,1.03504944 -1.3825,2.37240541 -3.5165,4.69827451 -4.7421,5.16859771 -1.2256,0.4703231 -9.1776,-2.0662645 -17.6711,-5.63687162 C 995.90119,-41.2195 888.47047,-50.78133 784.12016,-27.228707 691.89548,-6.4129208 604.84241,41.757831 537.59512,109.18579 c -54.51711,54.66346 -97.37699,124.39068 -122.74104,199.68255 -12.30436,36.52496 -22.30367,90.61774 -24.04062,130.05117 -0.77511,17.59781 -1.71108,24.96336 -3.3851,26.63726 -1.96198,1.96203 -27.27551,2.30613 -166.52814,2.26387 -108.48781,-0.0329 -165.187747,-0.61683 -167.082943,-1.72068 z M 1125.2609,-13.324676 c 0.5598,-1.458772 0.285,-2.116753 -0.6442,-1.542471 -0.8913,0.55081 -1.6205,1.695606 -1.6205,2.543966 0,2.3578986 1.175,1.838317 2.2647,-1.001495 z m 12.1717,-26.185696 c -0.5047,-0.504699 -1.4213,0.405068 -2.0369,2.021695 -0.8895,2.336212 -0.7012,2.524492 0.9177,0.917633 1.1203,-1.111945 1.6239,-2.434629 1.1192,-2.939328 z m 6.1364,-12.413737 c 2.3298,-4.597493 3.961,-8.633949 3.6251,-8.96989 -0.336,-0.335941 -2.5905,3.42565 -5.0101,8.359085 -2.4195,4.933435 -4.0508,8.969874 -3.625,8.969874 0.4258,0 2.6803,-3.76159 5.01,-8.359069 z m 7.2437,-17.048785 c 0,-0.901569 -0.715,-0.532745 -1.589,0.819608 -0.874,1.352354 -1.589,3.196472 -1.589,4.098041 0,0.901569 0.715,0.532746 1.589,-0.819608 0.874,-1.352353 1.589,-3.196472 1.589,-4.098041 z m 12.1502,-24.673387 c 0.5598,-1.458771 0.285,-2.116754 -0.6442,-1.54247 -0.8913,0.55081 -1.6205,1.695606 -1.6205,2.543966 0,2.357898 1.175,1.838315 2.2647,-1.001496 z m 20.172,-44.412829 c -0.6322,-0.63218 -17.3286,34.28173 -18.5361,38.760713 -0.3645,1.352352 3.7965,-6.675993 9.2468,-17.840773 5.4503,-11.16477 9.6305,-20.57876 9.2893,-20.91994 z m 9.506,-17.99243 c 1.3645,-3.2656 2.4499,-6.4006 2.4121,-6.96668 -0.088,-1.31591 -6.3276,10.03207 -6.4194,11.6747 -0.1665,2.97779 1.7239,0.75689 4.0073,-4.70802 z m 15.4572,-34.22337 c 0,-0.90157 -1.4135,0.94255 -3.141,4.09804 -1.7276,3.15549 -3.1411,6.47491 -3.1411,7.37648 0,0.90157 1.4135,-0.94255 3.1411,-4.09804 1.7275,-3.1555 3.141,-6.47491 3.141,-7.37648 z m 5.0048,-9.8353 c 0,-0.90157 -0.715,-0.53274 -1.589,0.81961 -0.8739,1.35235 -1.589,3.19647 -1.589,4.09804 0,0.90157 0.7151,0.53275 1.589,-0.81961 0.874,-1.35235 1.589,-3.19647 1.589,-4.09804 z m 11.3701,-24.58824 c 0,-0.90157 -2.1434,2.41784 -4.763,7.37647 -2.6196,4.95863 -4.763,9.75334 -4.763,10.65491 0,0.90157 2.1434,-2.41785 4.763,-7.37648 2.6196,-4.95863 4.763,-9.75334 4.763,-10.6549 z m 6.6613,-14.75295 c 0,-0.90157 -0.715,-0.53275 -1.589,0.81961 -0.874,1.35235 -1.589,3.19647 -1.589,4.09804 0,0.90157 0.715,0.53274 1.589,-0.81961 0.874,-1.35235 1.589,-3.19647 1.589,-4.09804 z m 9.3158,-19.96714 c -0.7714,-0.77135 -7.7035,13.61414 -7.55,15.66767 0.042,0.56156 1.9369,-2.55493 4.2109,-6.92556 2.274,-4.37062 3.7766,-8.30459 3.3391,-8.74211 z m 11.8961,-24.29171 c 0,-0.90156 -1.7775,1.6802 -3.9499,5.73726 -2.1724,4.05706 -3.9499,8.11413 -3.9499,9.01569 0,0.90156 1.7775,-1.6802 3.9499,-5.73726 2.1724,-4.05705 3.9499,-8.11411 3.9499,-9.01569 z M 834.01221,452.03828 c -10.0241,-3.4732 -19.57076,-12.73116 -23.36029,-22.6539 -3.91809,-10.2594 -2.22442,-12.99365 8.43849,-13.62298 l 8.02725,-0.47376 3.68274,8.07066 c 5.50079,12.0549 15.44131,16.03661 27.47913,11.0069 10.63653,-4.44422 15.45721,-18.79804 9.62759,-28.66678 -3.99949,-6.77063 -8.64884,-8.9272 -19.47964,-9.0355 l -9.8353,-0.0984 -0.50462,-6.07765 c -0.72919,-8.7825 1.9315,-12.77334 8.51597,-12.77334 7.43514,0 16.10895,-6.17265 18.01558,-12.82065 2.25596,-7.86616 -1.89377,-15.7697 -9.6184,-18.31906 -10.61835,-3.50437 -20.83674,2.15931 -23.80866,13.19623 -1.68313,6.25063 -1.97819,6.46897 -8.7419,6.46897 -3.85,0 -8.39099,-1.01712 -10.09109,-2.26025 -2.755,-2.01452 -2.87951,-2.96643 -1.14521,-8.75505 5.60752,-18.71619 22.5576,-30.0224 41.63336,-27.7707 28.0252,3.30809 42.48435,31.98245 26.67128,52.8926 l -3.84994,5.0909 4.9733,3.67692 c 13.93701,10.30407 14.92969,35.58497 1.99081,50.70115 -10.65264,12.4452 -32.28469,17.88371 -48.62045,12.22364 z m 67.1434,-0.0122 c -0.60105,-0.60104 -1.08589,-3.73605 -1.07744,-6.96668 0.0236,-9.01537 8.19519,-21.43312 22.37026,-33.99448 34.28304,-30.38062 39.9046,-37.23225 39.9046,-48.63662 0,-11.91104 -12.4685,-19.56383 -25.9572,-15.93169 -7.4738,2.01248 -13.36616,9.05866 -13.37788,15.99747 -0.009,4.79875 -4.71839,7.11756 -12.04355,5.92884 -8.45821,-1.37258 -9.78335,-3.61963 -7.49463,-12.7089 2.68814,-10.67564 9.65099,-19.5047 18.97496,-24.06067 10.834,-5.29384 31.00581,-5.45374 40.71791,-0.32278 23.1653,12.23842 27.08706,38.24711 9.05711,60.06588 -3.53728,4.28059 -14.58308,14.88524 -24.54623,23.56592 -9.96315,8.68068 -18.11482,16.37281 -18.11482,17.09367 0,0.72083 11.98677,1.51329 26.63726,1.76101 l 26.63728,0.45042 0.50996,7.08779 c 0.85867,11.93413 1.47247,11.7632 -42.23751,11.7632 -21.37699,0 -39.35903,-0.49177 -39.96008,-1.09283 z"
         id="path4406"
         inkscape:connector-curvature="0" />
      <path
         style="fill:#1e76b2"
         d="M 54.751324,461.95447 C 53.561122,458.85302 55.217299,417.7636 57.618161,390.82731 67.106908,284.36706 99.73405,173.05087 148.90548,79.376192 191.27053,-1.3316606 238.25511,-65.368323 301.70424,-128.87766 c 67.57874,-67.64291 135.30365,-116.12201 222.15835,-159.02645 99.06058,-48.93385 198.9949,-76.4557 309.59748,-85.26292 32.28703,-2.571 125.0268,-1.07746 154.9838,2.49597 86.25293,10.28868 162.51423,30.278 237.82303,62.33724 15.437,6.57161 23.9527,11.07188 24.2938,12.83847 0.8389,4.34409 -137.7823,297.8008968 -140.6782,297.8115679 -1.3524,0.0049 -9.0977,-2.84384235 -17.2118,-6.3307192 -67.097,-28.8335207 -155.63485,-43.6088287 -227.85106,-38.0240497 -87.47599,6.764864 -159.93138,29.364856 -230.57817,71.921045 -82.96908,49.97889 -147.685,119.318786 -191.19462,204.855696 -33.96841,66.77955 -52.21853,134.22713 -55.5412,205.26562 -0.52717,11.26961 -1.68713,21.41226 -2.57799,22.53922 -1.27623,1.61474 -36.33046,2.04903 -165.39179,2.04903 -148.996486,0 -163.863787,-0.23797 -164.784546,-2.63759 z M 833.67453,449.13543 c -8.39769,-3.0714 -20.03154,-15.67474 -21.45042,-23.23796 -0.58989,-3.14443 -0.79958,-5.98577 -0.46597,-6.3141 0.33361,-0.32835 3.32342,-1.10444 6.64401,-1.72465 5.95659,-1.11257 6.09387,-1.01626 10.25361,7.19258 4.87639,9.62311 10.68198,13.31606 20.91973,13.30716 16.96822,-0.014 28.4085,-16.3975 22.0603,-31.5909 -3.4135,-8.16966 -11.14253,-12.64795 -21.8423,-12.65568 -8.95495,-0.007 -10.32598,-1.19784 -9.05143,-7.8652 0.79272,-4.14677 0.85573,-4.18529 11.15421,-6.81706 10.03618,-2.56471 15.3822,-8.68844 15.3822,-17.6199 0,-8.95792 -1.97796,-12.84534 -8.16327,-16.04389 -12.03735,-6.22477 -24.8703,-0.96074 -30.21358,12.39346 -2.53497,6.33551 -2.95189,6.62703 -7.96672,5.57066 -2.91046,-0.61307 -5.96884,-1.75096 -6.79639,-2.52862 -2.70528,-2.54213 2.12659,-14.03388 8.78601,-20.89593 16.30219,-16.79829 48.25628,-12.06616 57.6101,8.5316 5.39707,11.88471 3.63612,22.29139 -5.34831,31.6071 l -5.00481,5.18933 5.84883,3.82636 c 16.25879,10.63666 17.62987,35.38463 2.78287,50.23162 -2.92917,2.92917 -7.64485,6.52966 -10.47927,8.00103 -7.07617,3.6734 -26.36537,4.47647 -34.6594,1.44299 z m 68.58645,-1.84331 c -1.26616,-3.29953 3.65506,-14.13385 10.14539,-22.33569 2.81208,-3.55359 12.80313,-13.08796 22.2023,-21.18744 9.39919,-8.09949 19.44744,-17.69827 22.32944,-21.33064 10.65615,-13.43063 11.08177,-25.43707 1.20905,-34.10544 -4.87312,-4.27865 -7.0644,-5.04288 -14.45975,-5.04288 -11.27898,0 -18.82067,4.82647 -22.31254,14.27937 -3.29265,8.91358 -3.74554,9.25483 -10.58074,7.97255 -6.84863,-1.28481 -7.4533,-4.55088 -2.75657,-14.8895 6.03509,-13.28469 18.50573,-20.44828 35.62968,-20.46699 22.00974,-0.0241 36.71717,13.27757 36.71717,33.20763 0,16.51314 -5.45895,23.82725 -42.27495,56.64156 -7.40214,6.59756 -13.45841,12.68315 -13.45841,13.52355 0,0.88051 11.0636,1.52796 26.11037,1.52796 21.55109,0 26.56017,0.4498 28.68629,2.5759 2.74676,2.74677 3.18506,5.40386 1.58092,9.58415 -0.86811,2.26226 -5.89116,2.5929 -39.39262,2.5929 -33.20974,0 -38.52972,-0.34412 -39.37503,-2.54699 z"
         id="path4404"
         inkscape:connector-curvature="0" />
    </g>
  </g>
</svg>
