<?xml version="1.0" encoding="UTF-8" standalone="no"?>
<!-- Created with Inkscape (http://www.inkscape.org/) -->

<svg
   xmlns:dc="http://purl.org/dc/elements/1.1/"
   xmlns:cc="http://creativecommons.org/ns#"
   xmlns:rdf="http://www.w3.org/1999/02/22-rdf-syntax-ns#"
   xmlns:svg="http://www.w3.org/2000/svg"
   xmlns="http://www.w3.org/2000/svg"
   xmlns:sodipodi="http://sodipodi.sourceforge.net/DTD/sodipodi-0.dtd"
   xmlns:inkscape="http://www.inkscape.org/namespaces/inkscape"
   width="500"
   height="500"
   viewBox="0 0 500.00001 500.00001"
   id="svg3437"
   version="1.1"
   inkscape:version="0.91 r"
   sodipodi:docname="dimmer.svg">
  <defs
     id="defs3439" />
  <sodipodi:namedview
     id="base"
     pagecolor="#ffffff"
     bordercolor="#666666"
     borderopacity="1.0"
     inkscape:pageopacity="0.0"
     inkscape:pageshadow="2"
     inkscape:zoom="0.7"
     inkscape:cx="86.960829"
     inkscape:cy="337.58462"
     inkscape:document-units="px"
     inkscape:current-layer="layer1"
     showgrid="false"
     units="px"
     inkscape:window-width="1366"
     inkscape:window-height="744"
     inkscape:window-x="0"
     inkscape:window-y="24"
     inkscape:window-maximized="1" />
  <metadata
     id="metadata3442">
    <rdf:RDF>
      <cc:Work
         rdf:about="">
        <dc:format>image/svg+xml</dc:format>
        <dc:type
           rdf:resource="http://purl.org/dc/dcmitype/StillImage" />
        <dc:title />
      </cc:Work>
    </rdf:RDF>
  </metadata>
  <g
     inkscape:label="Layer 1"
     inkscape:groupmode="layer"
     id="layer1"
     transform="translate(0,-552.36216)">
    <g
       id="g3364"
       transform="matrix(0.87667037,0,0,0.87667037,160.66093,280.00552)">
      <path
         style="fill:#ececec"
         d="m 67.8125,851.06637 c -4.64062,-0.73712 -10.33594,-1.80025 -12.65625,-2.3625 -2.32031,-0.56225 -6.11719,-1.32899 -8.4375,-1.70386 -2.32031,-0.37486 -6.75,-1.41763 -9.84375,-2.31725 -3.09375,-0.89963 -7.55468,-2.17862 -9.91319,-2.8422 -2.35851,-0.66359 -7.03223,-2.3043 -10.38606,-3.64605 -3.35383,-1.34174 -6.39004,-2.43952 -6.74716,-2.43952 -0.35711,0 -3.48807,-1.32706 -6.95769,-2.94903 -32.44772,-15.16855 -52.07253,-28.27297 -76.65107,-51.18358 -13.67684,-12.74872 -32.39507,-36.31041 -41.84783,-52.67625 -5.62394,-9.73689 -17.651,-34.1679 -17.65903,-35.87142 -0.003,-0.67429 -0.55447,-2.28066 -1.22511,-3.56972 -2.50865,-4.82198 -4.48879,-12.43473 -3.91449,-15.04947 0.53653,-2.44283 -0.87654,-9.60574 -3.50421,-17.76303 -2.41822,-7.50707 -5.11551,-26.00987 -6.4338,-44.1345 -1.1384,-15.6514 -0.29341,-34.57094 2.36714,-53.00048 5.43923,-37.67743 22.97685,-80.18676 46.0558,-111.63439 16.02672,-21.83819 41.60222,-46.4259 61.8167,-59.42919 2.0625,-1.32674 6.28125,-4.04467 9.375,-6.03985 8.01473,-5.16875 25.6295,-14.51159 27.3598,-14.51159 0.43613,0 2.26328,-0.78455 4.06033,-1.74345 5.04854,-2.69388 25.84845,-10.18664 34.20487,-12.32162 8.93865,-2.28375 27.06724,-5.90418 37.5,-7.48908 18.93029,-2.8758 51.04199,-4.42809 58.7856,-2.84172 2.73042,0.55936 8.22678,1.39638 12.21412,1.86004 3.98735,0.46366 7.69375,1.11744 8.23644,1.45284 0.54269,0.3354 3.3975,0.99035 6.34402,1.45545 5.42131,0.85574 7.61667,1.44275 23.63857,6.32063 12.2601,3.73259 34.96912,13.95789 47.25547,21.27795 5.62332,3.3503 10.37131,6.09146 10.55112,6.09146 0.66657,0 13.22869,8.9709 20.91202,14.93375 9.32131,7.23405 35.05066,32.61489 41.76389,41.19818 13.6703,17.47836 23.36651,33.46702 33.33119,54.96182 3.19814,6.89868 9.00163,22.39152 10.19248,27.20956 0.38533,1.559 1.18846,3.74611 1.78471,4.86023 0.59626,1.11414 1.08203,3.00265 1.07948,4.1967 -0.003,1.19406 0.59301,4.06945 1.32345,6.38976 2.34817,7.45916 3.64475,13.43789 4.37116,20.15625 0.39025,3.60937 1.16566,9.09375 1.72311,12.1875 1.23448,6.85105 1.23984,52.31198 0.007,59.53125 -0.48429,2.83594 -1.25238,8.32031 -1.70688,12.1875 -0.4545,3.86719 -1.2384,8.29687 -1.74201,9.84375 -0.5036,1.54687 -1.63786,6.1875 -2.52056,10.3125 -0.8827,4.125 -3.46865,12.77439 -5.74654,19.22087 -2.27743,6.44647 -4.14116,12.09752 -4.14116,12.55787 0,0.94607 -5.24597,12.26019 -9.60772,20.72126 -1.59486,3.09375 -3.22323,6.25781 -3.61861,7.03125 -1.26539,2.47536 -12.3984,20.99026 -14.38671,23.92598 -6.21968,9.18337 -21.70843,26.98749 -32.97,37.89859 -21.15527,20.49692 -48.51501,39.17275 -72.07321,49.19735 -4.64063,1.9747 -10.125,4.37434 -12.1875,5.33252 -2.0625,0.95818 -7.19905,2.77158 -11.41457,4.02976 -4.21551,1.25819 -8.43426,2.66927 -9.375,3.13572 -0.94073,0.46646 -5.08543,1.59571 -9.21043,2.50944 -4.125,0.91374 -9.84799,2.25124 -12.71775,2.97223 -2.86977,0.72101 -6.87758,1.32594 -8.90625,1.3443 -2.02868,0.0184 -6.21975,0.64459 -9.3135,1.39161 -7.75371,1.87221 -56.3291,1.7472 -68.4375,-0.17612 z M 132.5,757.12381 c 25.19343,-5.5034 45.70037,-13.67346 59.0625,-23.53078 2.0625,-1.52152 5.01563,-3.46826 6.5625,-4.32611 2.78688,-1.54549 14.69295,-11.85002 21.06582,-18.23217 10.05358,-10.06819 20.11462,-23.33336 26.6396,-35.12351 4.77185,-8.62236 11.13071,-23.36676 12.73606,-29.53125 0.60425,-2.32031 1.51931,-5.69531 2.03347,-7.5 4.87124,-17.09798 6.18121,-51.27052 2.69535,-70.3125 -6.18624,-33.79322 -20.52029,-60.56791 -46.17463,-86.25 -10.49974,-10.51109 -25.74145,-22.14991 -33.52692,-25.60169 -2.32031,-1.02874 -5.88182,-2.91753 -7.91445,-4.19731 -3.46132,-2.1793 -17.53218,-7.69926 -24.89805,-9.76743 -15.72272,-4.41457 -22.97013,-5.7073 -35.29676,-6.29591 -9.30569,-0.44436 -11.74396,-0.86454 -13.32161,-2.29565 -1.41228,-1.28112 -2.63385,-1.57466 -4.54698,-1.09263 -1.43875,0.36252 -5.9909,0.84121 -10.1159,1.06376 -29.1306,1.57166 -58.01363,13.24172 -85.9107,34.71183 -7.41879,5.70965 -27.02136,26.15034 -31.80276,33.16253 -14.85894,21.79145 -22.88861,40.39494 -27.71818,64.21875 -1.40679,6.9396 -1.69625,12.68156 -1.63052,32.34375 0.0746,22.33145 0.24297,24.61645 2.55494,34.6875 1.9629,8.55039 2.96875,11.21586 4.86105,12.88162 2.32766,2.04898 5.99068,8.89777 6.03183,11.27779 0.0607,3.5099 8.97546,19.83133 19.35864,35.44242 4.1363,6.21894 22.73898,25.78008 29.2292,30.73518 11.37752,8.68643 28.44543,18.84553 37.55466,22.35319 3.90682,1.50438 7.53778,3.08436 8.06882,3.51107 0.88621,0.71211 3.10458,1.40154 16.98542,5.27886 2.62344,0.7328 5.7875,1.36632 7.03125,1.40782 1.24374,0.0415 4.15979,0.62647 6.4801,1.29994 5.69951,1.65428 45.96362,1.41596 53.90625,-0.31907 z M 120.25111,633.83785 c -4.98966,-2.32342 -10.0409,-8.59678 -12.54719,-15.58286 -1.77964,-4.96061 -2.43131,-29.71438 -0.9688,-36.79982 3.12798,-15.15413 11.62594,-23.20018 24.50323,-23.20018 10.71128,0 18.85528,6.06816 22.57273,16.81909 1.91414,5.53575 2.12108,7.83428 2.07287,23.02466 -0.0483,15.22128 -0.25724,17.36638 -2.13208,21.88921 -2.98079,7.19075 -6.1959,10.96285 -11.66851,13.68997 -6.49294,3.23556 -15.09194,3.29856 -21.83225,0.15993 z m 14.96203,-16.81989 c 1.77744,-2.37965 2.00403,-4.12287 2.27187,-17.47787 0.17822,-8.88686 -0.11845,-16.3793 -0.73994,-18.68735 -1.84905,-6.86687 -7.40497,-8.26944 -10.51464,-2.65439 -1.34081,2.42107 -2.25624,26.51154 -1.25991,33.15558 0.70492,4.70073 4.16602,9.11433 6.74891,8.6062 0.83565,-0.16439 2.40782,-1.48837 3.49371,-2.94217 z m -75.28325,16.80957 c -1.95484,-2.35543 0.7534,-18.42251 5.17278,-30.68845 2.53873,-7.0462 10.14945,-21.94641 11.6989,-22.90403 0.47007,-0.29052 0.85468,-1.12486 0.85468,-1.85407 0,-1.07117 -2.6564,-1.3757 -13.82813,-1.58531 L 50,576.53624 l -0.27541,-7.3545 c -0.17284,-4.61537 0.13179,-7.84514 0.81791,-8.67187 0.88732,-1.06914 5.64585,-1.31738 25.25324,-1.31738 27.30054,0 25.29801,-0.63427 25.29801,8.0128 0,4.18055 -0.45324,5.57562 -2.6402,8.12645 -10.67938,12.45628 -18.62421,30.89071 -20.88519,48.45992 -0.57027,4.43139 -1.35548,8.68989 -1.74489,9.46333 -1.0223,2.03043 -14.28707,2.50827 -15.89358,0.57254 z"
         id="path3355"
         inkscape:connector-curvature="0" />
      <path
         style="fill:#eab74f"
         d="m 88.4375,849.8003 c -10.04335,-0.68588 -27.71103,-2.71851 -28.64464,-3.29551 -0.31165,-0.19261 -3.48629,-0.80148 -7.05475,-1.35303 -3.56846,-0.55156 -7.5428,-1.37042 -8.83186,-1.8197 -1.28906,-0.44927 -5.71875,-1.748 -9.84375,-2.88608 -32.35099,-8.92555 -66.90679,-27.71676 -94.6875,-51.49044 -12.26284,-10.49407 -30.53785,-29.90499 -37.5,-39.83086 -2.0625,-2.94048 -5.19958,-7.29939 -6.97129,-9.68645 -2.6706,-3.59816 -9.4519,-15.27662 -17.29052,-29.77699 -2.62035,-4.84731 -8.73292,-19.41112 -10.94232,-26.07122 -1.81446,-5.46957 -1.9291,-6.56385 -0.80054,-7.64163 0.72444,-0.69185 6.37967,-2.81629 12.56717,-4.72099 6.1875,-1.90469 16.10156,-5.06363 22.03125,-7.01985 33.47617,-11.04394 43.01419,-14.07756 44.26131,-14.07756 2.09065,0 4.03221,2.69841 6.21853,8.6426 3.24007,8.80917 10.25183,22.05062 17.0119,32.12633 6.86337,10.2297 21.99368,26.73594 31.27124,34.11502 5.4316,4.32012 19.7902,14.17855 20.65076,14.17855 0.21704,0 3.17231,1.6875 6.56726,3.75 3.39494,2.0625 6.43289,3.75 6.751,3.75 0.31811,0 1.90777,0.60397 3.53257,1.34217 9.45398,4.29524 16.94786,6.98001 23.57918,8.44753 4.125,0.91287 9.60938,2.2165 12.1875,2.89694 8.68817,2.29307 30.73118,3.40206 45.50709,2.28947 7.45548,-0.56137 14.82104,-1.39579 16.36791,-1.85425 1.54688,-0.45846 4.92188,-1.12555 7.5,-1.48244 7.1311,-0.98714 25.13571,-7.43192 35.625,-12.75203 16.69693,-8.46857 27.72615,-16.67971 43.14975,-32.12452 13.27402,-13.29226 19.80468,-21.62509 28.32222,-36.13787 7.48412,-12.75196 14.57402,-33.24948 17.67284,-51.09375 2.48119,-14.2876 2.28635,-44.17076 -0.38572,-59.16331 -4.37139,-24.52698 -13.39768,-45.28908 -29.09796,-66.93044 -10.17419,-14.02418 -35.62307,-37.20419 -48.95883,-44.59396 -1.24563,-0.69025 -5.6398,-3.13898 -9.7648,-5.44164 -14.55559,-8.12521 -38.38042,-14.57484 -60.87087,-16.47837 -6.15085,-0.52058 -11.63523,-1.39806 -12.1875,-1.94994 -0.67607,-0.67558 -1.08979,-14.77566 -1.26632,-43.15738 l -0.26219,-42.15397 2.13719,-0.8083 c 1.18116,-0.44672 6.95998,-0.46187 12.91844,-0.0339 50.70748,3.64242 96.22754,20.42655 136.40625,50.29563 14.18995,10.54889 36.21834,31.81624 46.05273,44.46169 10.89714,14.01199 15.0965,20.32268 22.98924,34.5476 21.3625,38.50125 31.83748,78.75548 31.95832,122.8125 0.15425,56.24395 -19.10803,112.32963 -53.37639,155.41516 -14.54987,18.2935 -30.84397,34.19769 -48.13713,46.98523 -9.54365,7.0571 -32.17086,20.95997 -39.79927,24.45391 -12.47685,5.71461 -25.99052,11.18761 -32.34375,13.09911 -3.86719,1.16353 -8.71875,2.65945 -10.78125,3.32427 -5.84674,1.88462 -25.40885,5.9351 -34.21875,7.08527 -18.91867,2.46988 -32.31428,2.96178 -49.21875,1.80735 z m 34.26165,-217.74599 c -6.21051,-2.527 -10.55619,-7.76205 -12.86859,-15.50223 -2.26448,-7.57976 -2.28026,-29.29989 -0.0274,-37.67209 3.92128,-14.57232 14.61149,-21.18262 27.89466,-17.24868 10.46221,3.09848 15.48679,12.51183 16.55701,31.01886 0.98608,17.0521 -2.76516,31.26134 -9.63666,36.50249 -6.92846,5.28459 -13.82033,6.19694 -21.91905,2.90165 z m 12.80176,-11.45848 C 139.09784,618.07644 140,613.28334 140,596.69249 c 0,-13.59536 -0.22708,-15.92231 -1.875,-19.2139 -2.1701,-4.33458 -5.63375,-6.00492 -9.60937,-4.6341 -1.6046,0.55327 -3.28615,2.30316 -4.45313,4.6341 -1.64792,3.29159 -1.875,5.61854 -1.875,19.2139 0,16.59085 0.90216,21.38395 4.49909,23.90334 2.56989,1.80002 6.24443,1.80002 8.81432,0 z M 62.7702,632.40775 c -1.76217,-1.11613 -0.66106,-11.10519 2.38681,-21.65276 2.68009,-9.27479 9.01451,-23.10655 13.27603,-28.98943 4.79021,-6.61269 4.75745,-6.63365 -10.38617,-6.64992 -7.34765,-0.008 -13.99218,-0.41481 -14.76562,-0.90424 -0.95111,-0.60187 -1.38533,-2.35919 -1.34161,-5.42971 0.11764,-8.26152 -1.54021,-7.7142 23.36664,-7.7142 l 22.08388,0 0.98251,2.57812 c 1.48646,3.90049 0.45741,6.90998 -4.68662,13.70619 -9.194,12.14695 -17.05651,31.85672 -18.47641,46.31667 -0.86581,8.81724 -1.40848,9.58944 -6.727,9.57217 -2.43107,-0.008 -5.00167,-0.3827 -5.71244,-0.83289 z"
         id="path3351"
         inkscape:connector-curvature="0" />
      <path
         style="fill:#eca922"
         d="m 93.59375,848.44336 c -0.77344,-0.18998 -7.10156,-0.83069 -14.0625,-1.42381 -6.96094,-0.59312 -15.00424,-1.68279 -17.874,-2.42148 -2.86977,-0.73869 -6.56651,-1.34308 -8.21499,-1.34308 -1.64849,0 -6.0505,-0.87961 -9.78225,-1.95468 -3.73176,-1.07507 -8.3085,-2.32967 -10.17055,-2.78799 -4.99134,-1.22857 -25.55347,-9.01328 -33.63038,-12.73227 -13.07323,-6.01954 -30.15489,-15.94272 -41.26533,-23.97209 -6.18965,-4.47318 -22.15827,-17.67993 -28.3129,-23.41601 -6.35057,-5.91869 -23.54041,-25.16949 -26.63151,-29.82446 -1.19838,-1.80469 -3.43765,-4.96875 -4.97613,-7.03125 -6.23721,-8.36161 -19.42317,-31.58551 -22.21918,-39.13372 -1.09683,-2.96104 -2.42697,-5.91417 -2.95587,-6.5625 -1.31323,-1.60979 -5.84191,-14.94787 -5.84191,-17.20591 0,-1.45786 1.45737,-2.27092 7.26563,-4.05346 11.89112,-3.64937 17.44078,-5.44363 19.92187,-6.44095 1.28906,-0.51815 6.77344,-2.31492 12.1875,-3.99281 5.41406,-1.67789 15.17526,-4.88529 21.69155,-7.12755 15.34459,-5.2801 16.88658,-5.28757 19.08394,-0.0924 16.65165,39.36864 38.4049,64.55637 74.06826,85.76246 9.7207,5.7801 27.42907,13.04495 37.27514,15.29211 4.7643,1.08735 9.92799,2.42627 11.47486,2.97537 4.17733,1.48287 20.90987,2.92566 34.21875,2.95059 11.99207,0.0225 26.44311,-1.29831 35.625,-3.256 25.07048,-5.34531 55.46611,-20.57422 71.25,-35.69787 2.32031,-2.22326 5.50795,-5.09697 7.08365,-6.38603 1.57568,-1.28906 6.45133,-6.38528 10.83476,-11.32492 24.09074,-27.14758 37.11864,-57.04431 40.20638,-92.26649 0.53274,-6.07699 1.22649,-12.07651 1.54167,-13.33227 0.67538,-2.69095 -1.96256,-28.40883 -4.01776,-39.17007 -2.12158,-11.10879 -5.98371,-22.98838 -10.81993,-33.28125 -1.57478,-3.35156 -3.25406,-7.12012 -3.73172,-8.37457 -1.12197,-2.94649 -7.96305,-13.29197 -15.84995,-23.96922 -11.18781,-15.14602 -30.58468,-32.61903 -46.8096,-42.16681 -3.35156,-1.97227 -8.04156,-4.73538 -10.42222,-6.14023 -8.04187,-4.74561 -27.61301,-11.41029 -42.07778,-14.329 -3.86719,-0.78033 -12.02886,-1.85955 -18.13703,-2.39828 -6.10818,-0.53872 -11.70242,-1.47466 -12.43164,-2.07986 -1.11271,-0.92346 -1.2866,-7.67452 -1.08172,-41.99309 l 0.24414,-40.89273 3.28125,0.0994 c 34.11983,1.03329 68.5425,8.91773 96.5625,22.11746 3.35156,1.57886 7.96777,3.67931 10.25824,4.66767 2.29046,0.98836 5.8764,2.8603 7.96875,4.15986 2.09234,1.29956 7.1875,4.36763 11.32257,6.81793 20.95082,12.41475 50.53613,38.50423 64.8049,57.14746 10.63736,13.89851 26.58304,39.00327 26.58304,41.85212 0,0.44164 0.5812,1.46902 1.29156,2.28306 2.40304,2.75379 13.92916,32.44465 15.61147,40.21459 0.48193,2.22586 1.16092,4.50763 1.50885,5.0706 0.6494,1.05074 2.08457,7.11342 4.61044,19.47613 3.81842,18.68904 5.72793,46.22061 4.22645,60.9375 -2.56163,25.10792 -2.84136,26.93185 -6.90137,45 -3.89074,17.31479 -16.2792,50.26592 -21.45992,57.07956 -0.93499,1.22969 -1.69998,2.6677 -1.69998,3.19558 0,1.47248 -14.85776,25.01695 -18.46209,29.25611 -1.75364,2.0625 -6.30629,7.54687 -10.11701,12.1875 -12.76788,15.54854 -23.80935,26.09336 -42.21112,40.3125 -7.52637,5.81566 -8.21853,6.27185 -21.25051,14.00574 -16.72853,9.92763 -40.46251,20.53608 -54.9144,24.54527 -19.64625,5.45019 -35.09583,8.81376 -40.54487,8.82712 -2.32031,0.006 -5.88503,0.39673 -7.92158,0.86898 -3.8064,0.88264 -32.68668,2.09066 -35.20342,1.47251 z m 27.97061,-218.43917 c -4.69391,-2.49966 -6.85926,-5.10492 -9.74005,-11.71883 C 110.23918,614.64613 110,611.88049 110,597.19161 c 0,-16.24552 0.0949,-17.10663 2.43185,-22.06162 1.33751,-2.83594 3.68217,-6.48512 5.21034,-8.10928 4.92297,-5.23221 14.52145,-6.49062 22.07591,-2.89428 10.06923,4.79351 13.4368,14.46616 12.76863,36.67533 -0.37333,12.40944 -0.58895,13.69811 -3.23887,19.35821 -3.90525,8.34142 -8.49695,11.53832 -17.102,11.90703 -5.13711,0.22012 -6.96294,-0.13582 -10.5815,-2.06281 z m 15.81869,-9.18318 c 3.23751,-2.94334 4.2432,-9.82216 3.87029,-26.47227 -0.38042,-16.98579 -1.30908,-20.03302 -6.92071,-22.70901 -3.00787,-1.43435 -3.46989,-1.43435 -6.47776,0 -5.46122,2.60428 -6.52151,5.85726 -6.91195,21.20596 -0.41753,16.41378 0.26105,22.49313 2.95729,26.49408 3.14371,4.66495 9.2438,5.33511 13.48284,1.48124 z m -74.05747,9.33736 c -0.25783,-0.67189 0.10864,-4.82755 0.81439,-9.2348 1.98428,-12.3916 8.13407,-27.21916 16.61858,-40.06853 4.53958,-6.87498 4.16247,-7.09399 -12.72355,-7.38948 l -14.75375,-0.25819 0,-5.13243 0,-5.13245 22.03125,0 22.03125,0 0,4.16342 c 0,2.28988 -0.43123,4.42994 -0.95829,4.75568 -3.43595,2.12353 -13.79038,19.96235 -17.67794,30.4559 -1.96609,5.307 -4.19647,15.48132 -5.29201,24.14062 l -0.62271,4.92188 -4.49922,0 c -2.83225,0 -4.6729,-0.45262 -4.968,-1.22162 z"
         id="path3349"
         inkscape:connector-curvature="0" />
    </g>
  </g>
</svg>
