<?xml version="1.0" encoding="UTF-8" standalone="no"?>
<!-- Created with Inkscape (http://www.inkscape.org/) -->
<svg id="svg4773" xmlns:rdf="http://www.w3.org/1999/02/22-rdf-syntax-ns#" xmlns="http://www.w3.org/2000/svg" height="500" width="500" version="1.1" xmlns:cc="http://creativecommons.org/ns#" xmlns:dc="http://purl.org/dc/elements/1.1/" viewBox="0 0 499.99998 499.99998">
 <metadata id="metadata4778">
  <rdf:RDF>
   <cc:Work rdf:about="">
    <dc:format>image/svg+xml</dc:format>
    <dc:type rdf:resource="http://purl.org/dc/dcmitype/StillImage"/>
    <dc:title/>
   </cc:Work>
  </rdf:RDF>
 </metadata>
 <g id="layer1" transform="translate(0 -552.36)">
  <g id="g4292" transform="matrix(2.2479 0 0 2.2479 -348.91 -182.39)">
   <text id="text3336" style="word-spacing:0px;letter-spacing:0px" line-height="125%" font-size="40px" y="385.21933" x="186.4774" font-family="sans-serif" xml:space="preserve" fill="#000000"><tspan id="tspan3338" style="letter-spacing:2.5px" font-weight="bold" font-size="50px" y="385.21933" x="186.4774" font-family="&apos;DejaVu Sans Mono&apos;">45:00</tspan></text>
   <g id="g4265" transform="translate(48.35)">
    <g id="g4159" transform="translate(-151.29 -6.7901)">
     <path id="path3340" fill="#ccc" d="m369.37 421.67a56.581 56.581 0 0 0 -56.582 56.58 56.581 56.581 0 0 0 56.582 56.582 56.581 56.581 0 0 0 56.582 -56.582 56.581 56.581 0 0 0 -56.582 -56.58zm0 23.803a32.777 32.777 0 0 1 32.777 32.777 32.777 32.777 0 0 1 -32.777 32.777 32.777 32.777 0 0 1 -32.777 -32.777 32.777 32.777 0 0 1 32.777 -32.777z"/>
     <path id="path3340-4" fill="#800080" d="m369.37 421.67v23.803a32.777 32.777 0 0 1 32.777 32.777 32.777 32.777 0 0 1 -32.777 32.777 32.777 32.777 0 0 1 -32.777 -32.777h-23.805a56.581 56.581 0 0 0 56.582 56.582 56.581 56.581 0 0 0 56.582 -56.582 56.581 56.581 0 0 0 -56.582 -56.58z"/>
    </g>
    <text id="text4261" style="word-spacing:0px;letter-spacing:0px" xml:space="preserve" font-size="40px" y="480.3923" x="203.25874" font-family="sans-serif" line-height="125%" fill="#000000"><tspan id="tspan4263" font-weight="bold" font-size="25px" y="480.3923" x="203.25874" font-family="&apos;DejaVu Sans Mono&apos;">45</tspan></text>
   </g>
  </g>
  <rect id="rect4274" height="497.92" width="497.92" stroke="#000" y="553.4" x="1.0404" stroke-width="2.0809" fill="none"/>
 </g>
</svg>
